<svg width="47" height="47" viewBox="0 0 47 47" fill="none" xmlns="http://www.w3.org/2000/svg">
    <rect width="47" height="47" rx="8" fill="#F0C330"/>
    <circle cx="23.5" cy="23.5" r="15.5" stroke="#333333" stroke-width="4"/>
    <path d="M15.0855 26.7967C13.4818 22.9353 14.7862 18.7963 17.5577 16.6533" stroke="#333333" stroke-width="3.68006"/>
    <path d="M29.111 16.5606C32.4305 19.1028 33.3704 23.3395 32.0417 26.5811" stroke="#333333" stroke-width="3.68006"/>
    <path d="M17.9855 16.242C21.3003 13.6937 25.6359 13.8823 28.4231 16.0047" stroke="#333333" stroke-width="3.68006"/>
    <rect x="16.8381" y="13.5374" width="6.4401" height="2.29928" transform="rotate(50.1839 16.8381 13.5374)" fill="#F0C330"/>
    <rect width="6.4401" height="2.29928" transform="matrix(-0.640326 0.768103 0.768103 0.640326 29.8107 13.4982)" fill="#F0C330"/>
    <mask id="path-8-outside-1_0_38" maskUnits="userSpaceOnUse" x="18" y="18" width="15" height="10" fill="black">
        <rect fill="white" x="18" y="18" width="15" height="10"/>
        <path fill-rule="evenodd" clip-rule="evenodd" d="M25.8699 23.8766C25.4949 25.1058 24.3519 26 23 26C21.3431 26 20 24.6569 20 23C20 21.3431 21.3431 20 23 20C23.964 20 24.8218 20.4547 25.3706 21.1613L29.5213 20.5683C30.7276 20.396 31.1349 22.1216 29.9789 22.507L25.8699 23.8766Z"/>
    </mask>
    <path fill-rule="evenodd" clip-rule="evenodd" d="M25.8699 23.8766C25.4949 25.1058 24.3519 26 23 26C21.3431 26 20 24.6569 20 23C20 21.3431 21.3431 20 23 20C23.964 20 24.8218 20.4547 25.3706 21.1613L29.5213 20.5683C30.7276 20.396 31.1349 22.1216 29.9789 22.507L25.8699 23.8766Z" fill="#333333"/>
    <path d="M25.8699 23.8766L25.2374 21.9793C24.6231 22.184 24.1459 22.6736 23.9569 23.293L25.8699 23.8766ZM25.3706 21.1613L23.7911 22.3881C24.2317 22.9553 24.9425 23.2427 25.6535 23.1412L25.3706 21.1613ZM29.5213 20.5683L29.2385 18.5884L29.5213 20.5683ZM29.9789 22.507L30.6114 24.4043L30.6114 24.4043L29.9789 22.507ZM23.9569 23.293C23.8314 23.7044 23.4476 24 23 24V28C25.2561 28 27.1584 26.5073 27.7829 24.4602L23.9569 23.293ZM23 24C22.4477 24 22 23.5523 22 23H18C18 25.7614 20.2386 28 23 28V24ZM22 23C22 22.4477 22.4477 22 23 22V18C20.2386 18 18 20.2386 18 23H22ZM23 22C23.3202 22 23.6049 22.1483 23.7911 22.3881L26.9501 19.9344C26.0387 18.761 24.6077 18 23 18V22ZM29.2385 18.5884L25.0878 19.1814L25.6535 23.1412L29.8041 22.5482L29.2385 18.5884ZM30.6114 24.4043C34.0793 23.2484 32.8574 18.0715 29.2385 18.5884L29.8041 22.5482C29.5926 22.5784 29.3049 22.5265 29.0576 22.3393C28.8389 22.1739 28.7311 21.9645 28.6895 21.788C28.6478 21.6115 28.6506 21.3761 28.7722 21.1303C28.9097 20.8523 29.1437 20.6772 29.3465 20.6096L30.6114 24.4043ZM26.5023 25.774L30.6114 24.4043L29.3465 20.6096L25.2374 21.9793L26.5023 25.774Z" fill="#F0C330" mask="url(#path-8-outside-1_0_38)"/>
</svg>
